<svg width="1024" height="1024" viewBox="0 0 1024 1024" fill="none" xmlns="http://www.w3.org/2000/svg">
<rect width="1024" height="1024" rx="300" fill="url(#paint0_linear_581_6801)"/>
<mask id="mask0_581_6801" style="mask-type:alpha" maskUnits="userSpaceOnUse" x="0" y="0" width="1024" height="1024">
<rect width="1024" height="1024" rx="300" fill="#0892F6"/>
</mask>
<g mask="url(#mask0_581_6801)">
<path d="M616.907 184.48C744.813 187.787 826.766 239.022 858.715 345.754C860.413 351.429 864.771 355.871 870.383 357.766C907.692 370.359 924.865 400.048 924.865 469.831C924.865 539.62 907.688 569.308 870.373 581.9C864.766 583.792 860.407 588.227 858.71 593.896C838.082 662.79 796.885 704.725 735.701 729.166L735.739 729.176C627.586 773.557 486.164 825.364 440.877 841.814C433.765 844.397 426.259 839.126 426.259 831.56V768.517C426.258 762.063 420.693 756.385 414.026 755.85L415.502 755.969C282.03 744.474 197.804 702.988 165.152 593.911C163.452 588.234 159.092 583.79 153.477 581.895C116.172 569.3 99 539.611 99 469.831C99 400.051 116.172 370.362 153.477 357.767C159.092 355.871 163.452 351.427 165.152 345.75C197.103 239.019 279.427 187.78 406.964 184.477C534.5 181.174 489 181.174 616.907 184.48Z" fill="white"/>
<path d="M511.933 672.675C399.883 672.675 329.759 660.089 291.25 633.067C274.179 621.088 262.178 605.361 253.481 583.575C242.309 555.588 236.645 517.319 236.645 469.83C236.645 422.342 242.309 384.073 253.481 356.086C262.178 334.3 274.179 318.574 291.25 306.595C329.759 279.572 399.883 266.986 511.933 266.986C623.984 266.986 694.106 279.572 732.617 306.595C749.686 318.574 761.688 334.3 770.385 356.086C781.558 384.073 787.221 422.343 787.221 469.83C787.221 517.318 781.557 555.588 770.385 583.575C761.688 605.361 749.686 621.088 732.617 633.067C694.108 660.089 623.984 672.675 511.933 672.675Z" fill="#001233"/>
<path d="M390.96 523.605C410.455 523.605 426.259 499.53 426.259 469.831C426.259 440.132 410.455 416.057 390.96 416.057C371.464 416.057 355.66 440.132 355.66 469.831C355.66 499.53 371.464 523.605 390.96 523.605Z" fill="#00E0FF"/>
<g filter="url(#filter0_f_581_6801)">
<path d="M390.96 523.605C410.455 523.605 426.259 499.53 426.259 469.831C426.259 440.132 410.455 416.057 390.96 416.057C371.464 416.057 355.66 440.132 355.66 469.831C355.66 499.53 371.464 523.605 390.96 523.605Z" fill="#00E0FF"/>
</g>
<path d="M632.898 523.605C652.394 523.605 668.198 499.53 668.198 469.831C668.198 440.132 652.394 416.057 632.898 416.057C613.403 416.057 597.599 440.132 597.599 469.831C597.599 499.53 613.403 523.605 632.898 523.605Z" fill="#00E0FF"/>
<g filter="url(#filter1_f_581_6801)">
<path d="M632.898 523.605C652.394 523.605 668.198 499.53 668.198 469.831C668.198 440.132 652.394 416.057 632.898 416.057C613.403 416.057 597.599 440.132 597.599 469.831C597.599 499.53 613.403 523.605 632.898 523.605Z" fill="#00E0FF"/>
</g>
</g>
<defs>
<filter id="filter0_f_581_6801" x="275.66" y="336.057" width="230.599" height="267.549" filterUnits="userSpaceOnUse" color-interpolation-filters="sRGB">
<feFlood flood-opacity="0" result="BackgroundImageFix"/>
<feBlend mode="normal" in="SourceGraphic" in2="BackgroundImageFix" result="shape"/>
<feGaussianBlur stdDeviation="40" result="effect1_foregroundBlur_581_6801"/>
</filter>
<filter id="filter1_f_581_6801" x="517.599" y="336.057" width="230.599" height="267.549" filterUnits="userSpaceOnUse" color-interpolation-filters="sRGB">
<feFlood flood-opacity="0" result="BackgroundImageFix"/>
<feBlend mode="normal" in="SourceGraphic" in2="BackgroundImageFix" result="shape"/>
<feGaussianBlur stdDeviation="40" result="effect1_foregroundBlur_581_6801"/>
</filter>
<linearGradient id="paint0_linear_581_6801" x1="512" y1="0" x2="512" y2="1024" gradientUnits="userSpaceOnUse">
<stop stop-color="#3EAEFF"/>
<stop offset="1" stop-color="#0148FF"/>
</linearGradient>
</defs>
</svg>
