<svg xmlns="http://www.w3.org/2000/svg" xmlns:xlink="http://www.w3.org/1999/xlink" viewBox="0 0 1440 810" width="100%" preserveAspectRatio="none" version="1.0"><defs><g/><clipPath id="dde6c5127d"><path d="M 346.296875 333 L 1069.296875 333 L 1069.296875 695 L 346.296875 695 Z M 346.296875 333 " clip-rule="nonzero"/></clipPath><clipPath id="a49535b379"><path d="M 308.917969 281 L 1130.917969 281 L 1130.917969 692.929688 L 308.917969 692.929688 Z M 308.917969 281 " clip-rule="nonzero"/></clipPath><clipPath id="8e2fcaa6d4"><path d="M 389.640625 369 L 1025.640625 369 L 1025.640625 687.300781 L 389.640625 687.300781 Z M 389.640625 369 " clip-rule="nonzero"/></clipPath><clipPath id="890de22f27"><path d="M 719.980469 372.875 L 890.980469 372.875 L 890.980469 603.125 L 719.980469 603.125 Z M 719.980469 372.875 " clip-rule="nonzero"/></clipPath><clipPath id="e7cbdea429"><path d="M 842 372.875 L 890.980469 372.875 L 890.980469 426 L 842 426 Z M 842 372.875 " clip-rule="nonzero"/></clipPath><clipPath id="ce0eeaf43d"><path d="M 931.007812 211.726562 L 1102 211.726562 L 1102 441.976562 L 931.007812 441.976562 Z M 931.007812 211.726562 " clip-rule="nonzero"/></clipPath><clipPath id="e727d5f4a6"><path d="M 1053 211.726562 L 1102 211.726562 L 1102 265 L 1053 265 Z M 1053 211.726562 " clip-rule="nonzero"/></clipPath><clipPath id="3095ea7ac8"><path d="M 370.078125 297.050781 L 541 297.050781 L 541 527.300781 L 370.078125 527.300781 Z M 370.078125 297.050781 " clip-rule="nonzero"/></clipPath><clipPath id="8d19d382b6"><path d="M 492 297.050781 L 541 297.050781 L 541 350 L 492 350 Z M 492 297.050781 " clip-rule="nonzero"/></clipPath><clipPath id="96569a2740"><path d="M 605.242188 114.898438 L 776 114.898438 L 776 345.148438 L 605.242188 345.148438 Z M 605.242188 114.898438 " clip-rule="nonzero"/></clipPath><clipPath id="b58f85b050"><path d="M 727 114.898438 L 776 114.898438 L 776 168 L 727 168 Z M 727 114.898438 " clip-rule="nonzero"/></clipPath></defs><g clip-path="url(#dde6c5127d)"><path fill="#d9d9d9" d="M 1069.230469 694.789062 L 1062.589844 694.789062 C 1062.589844 499.140625 903.414062 339.964844 707.761719 339.964844 C 512.105469 339.964844 352.9375 499.140625 352.9375 694.789062 L 346.296875 694.789062 C 346.296875 689.625 346.414062 684.46875 346.636719 679.3125 C 346.859375 674.152344 347.195312 669.003906 347.640625 663.863281 C 348.085938 658.71875 348.640625 653.589844 349.304688 648.46875 C 349.96875 643.351562 350.742188 638.25 351.625 633.164062 C 352.507812 628.078125 353.5 623.015625 354.601562 617.972656 C 355.699219 612.929688 356.910156 607.910156 358.222656 602.917969 C 359.539062 597.929688 360.960938 592.96875 362.488281 588.035156 C 364.015625 583.105469 365.644531 578.210938 367.382812 573.351562 C 369.121094 568.488281 370.960938 563.667969 372.902344 558.886719 C 374.847656 554.105469 376.890625 549.367188 379.039062 544.671875 C 381.183594 539.980469 383.429688 535.332031 385.777344 530.734375 C 388.121094 526.136719 390.566406 521.589844 393.105469 517.097656 C 395.644531 512.605469 398.28125 508.167969 401.007812 503.789062 C 403.738281 499.40625 406.5625 495.085938 409.476562 490.828125 C 412.394531 486.566406 415.398438 482.371094 418.492188 478.242188 C 421.585938 474.109375 424.769531 470.046875 428.039062 466.050781 C 431.304688 462.058594 434.660156 458.136719 438.097656 454.285156 C 441.53125 450.433594 445.050781 446.65625 448.648438 442.957031 C 452.246094 439.257812 455.921875 435.632812 459.675781 432.089844 C 463.429688 428.546875 467.257812 425.085938 471.160156 421.707031 C 475.0625 418.328125 479.035156 415.035156 483.078125 411.828125 C 487.121094 408.617188 491.230469 405.496094 495.40625 402.464844 C 499.582031 399.429688 503.820312 396.488281 508.125 393.636719 C 512.425781 390.785156 516.789062 388.027344 521.210938 385.363281 C 525.628906 382.699219 530.105469 380.128906 534.636719 377.65625 C 539.167969 375.183594 543.75 372.808594 548.382812 370.53125 C 553.011719 368.257812 557.691406 366.078125 562.417969 364.003906 C 567.144531 361.925781 571.910156 359.953125 576.722656 358.082031 C 581.53125 356.207031 586.378906 354.441406 591.265625 352.777344 C 596.152344 351.109375 601.070312 349.550781 606.023438 348.097656 C 610.976562 346.644531 615.957031 345.296875 620.96875 344.058594 C 625.976562 342.816406 631.011719 341.683594 636.070312 340.660156 C 641.128906 339.632812 646.210938 338.71875 651.308594 337.910156 C 656.40625 337.101562 661.519531 336.40625 666.644531 335.816406 C 671.773438 335.230469 676.914062 334.75 682.0625 334.382812 C 687.210938 334.015625 692.363281 333.757812 697.523438 333.609375 C 702.683594 333.460938 707.84375 333.425781 713.003906 333.496094 C 718.164062 333.570312 723.320312 333.753906 728.476562 334.050781 C 733.628906 334.34375 738.773438 334.746094 743.910156 335.261719 C 749.042969 335.777344 754.167969 336.402344 759.277344 337.136719 C 764.386719 337.871094 769.476562 338.710938 774.550781 339.664062 C 779.621094 340.617188 784.671875 341.675781 789.699219 342.84375 C 794.726562 344.011719 799.730469 345.289062 804.703125 346.671875 C 809.675781 348.054688 814.617188 349.542969 819.523438 351.136719 C 824.433594 352.730469 829.308594 354.429688 834.144531 356.230469 C 838.980469 358.035156 843.777344 359.941406 848.53125 361.949219 C 853.285156 363.957031 857.996094 366.066406 862.660156 368.273438 C 867.324219 370.484375 871.941406 372.792969 876.503906 375.199219 C 881.070312 377.609375 885.582031 380.113281 890.042969 382.714844 C 894.5 385.3125 898.902344 388.007812 903.246094 390.796875 C 907.585938 393.585938 911.867188 396.46875 916.089844 399.441406 C 920.308594 402.414062 924.460938 405.476562 928.550781 408.625 C 932.640625 411.777344 936.660156 415.011719 940.609375 418.335938 C 944.558594 421.660156 948.4375 425.0625 952.238281 428.554688 C 956.042969 432.042969 959.773438 435.609375 963.421875 439.257812 C 967.074219 442.90625 970.644531 446.632812 974.136719 450.433594 C 977.628906 454.234375 981.039062 458.109375 984.363281 462.054688 C 987.691406 466.003906 990.929688 470.019531 994.082031 474.105469 C 997.238281 478.191406 1000.300781 482.34375 1003.277344 486.5625 C 1006.253906 490.777344 1009.136719 495.058594 1011.929688 499.398438 C 1014.722656 503.738281 1017.421875 508.136719 1020.027344 512.59375 C 1022.628906 517.050781 1025.136719 521.5625 1027.550781 526.125 C 1029.960938 530.6875 1032.273438 535.300781 1034.488281 539.964844 C 1036.699219 544.628906 1038.8125 549.335938 1040.824219 554.089844 C 1045.523438 565.1875 1049.652344 576.496094 1053.210938 588.011719 C 1056.769531 599.527344 1059.742188 611.191406 1062.128906 623.003906 C 1064.511719 634.820312 1066.300781 646.722656 1067.484375 658.71875 C 1068.671875 670.710938 1069.253906 682.734375 1069.230469 694.789062 Z M 1069.230469 694.789062 " fill-opacity="1" fill-rule="nonzero"/></g><g clip-path="url(#a49535b379)"><path fill="#d9d9d9" d="M 1130.949219 692.695312 L 1123.394531 692.695312 C 1123.394531 470.230469 942.402344 289.234375 719.929688 289.234375 C 497.457031 289.234375 316.46875 470.230469 316.46875 692.695312 L 308.917969 692.695312 C 308.921875 686.824219 309.050781 680.957031 309.304688 675.09375 C 309.5625 669.230469 309.941406 663.375 310.449219 657.527344 C 310.953125 651.679688 311.585938 645.847656 312.339844 640.027344 C 313.09375 634.207031 313.976562 628.40625 314.980469 622.621094 C 315.984375 616.839844 317.109375 611.082031 318.363281 605.347656 C 319.613281 599.613281 320.984375 593.90625 322.480469 588.234375 C 323.976562 582.558594 325.59375 576.917969 327.328125 571.308594 C 329.066406 565.703125 330.921875 560.136719 332.894531 554.609375 C 334.871094 549.082031 336.964844 543.601562 339.171875 538.164062 C 341.382812 532.726562 343.707031 527.339844 346.148438 522.003906 C 348.589844 516.664062 351.144531 511.382812 353.8125 506.152344 C 356.476562 500.925781 359.253906 495.757812 362.144531 490.648438 C 365.03125 485.539062 368.027344 480.492188 371.132812 475.511719 C 374.234375 470.53125 377.445312 465.617188 380.761719 460.773438 C 384.074219 455.933594 387.492188 451.160156 391.011719 446.464844 C 394.53125 441.765625 398.148438 437.148438 401.863281 432.605469 C 405.582031 428.0625 409.394531 423.601562 413.300781 419.222656 C 417.210938 414.84375 421.210938 410.550781 425.300781 406.34375 C 429.390625 402.136719 433.574219 398.019531 437.839844 393.988281 C 442.109375 389.960938 446.460938 386.023438 450.898438 382.183594 C 455.335938 378.339844 459.851562 374.59375 464.449219 370.945312 C 469.046875 367.296875 473.71875 363.75 478.46875 360.300781 C 483.214844 356.851562 488.035156 353.503906 492.929688 350.261719 C 497.820312 347.019531 502.78125 343.886719 507.808594 340.855469 C 512.835938 337.824219 517.921875 334.90625 523.074219 332.09375 C 528.226562 329.28125 533.4375 326.582031 538.703125 323.992188 C 543.972656 321.402344 549.292969 318.929688 554.664062 316.566406 C 560.039062 314.207031 565.460938 311.960938 570.929688 309.832031 C 576.398438 307.703125 581.910156 305.695312 587.464844 303.800781 C 593.023438 301.910156 598.617188 300.136719 604.246094 298.484375 C 609.878906 296.828125 615.542969 295.296875 621.238281 293.886719 C 626.9375 292.476562 632.660156 291.1875 638.414062 290.023438 C 644.167969 288.859375 649.941406 287.816406 655.738281 286.898438 C 661.535156 285.980469 667.347656 285.1875 673.179688 284.519531 C 679.011719 283.847656 684.851562 283.304688 690.707031 282.886719 C 696.5625 282.46875 702.421875 282.175781 708.289062 282.007812 C 714.15625 281.839844 720.023438 281.796875 725.890625 281.878906 C 731.757812 281.964844 737.625 282.171875 743.484375 282.507812 C 749.34375 282.84375 755.191406 283.300781 761.03125 283.886719 C 766.871094 284.472656 772.695312 285.183594 778.507812 286.015625 C 784.316406 286.851562 790.105469 287.808594 795.875 288.890625 C 801.640625 289.976562 807.382812 291.179688 813.101562 292.507812 C 818.816406 293.835938 824.503906 295.289062 830.160156 296.859375 C 835.8125 298.433594 841.429688 300.125 847.011719 301.9375 C 852.597656 303.75 858.136719 305.679688 863.636719 307.730469 C 869.136719 309.78125 874.589844 311.945312 879.996094 314.230469 C 885.402344 316.515625 890.757812 318.910156 896.0625 321.425781 C 901.367188 323.9375 906.613281 326.5625 911.804688 329.300781 C 916.996094 332.039062 922.125 334.886719 927.195312 337.84375 C 932.265625 340.800781 937.269531 343.863281 942.207031 347.035156 C 947.148438 350.207031 952.015625 353.484375 956.8125 356.863281 C 961.609375 360.242188 966.335938 363.726562 970.984375 367.308594 C 975.632812 370.890625 980.203125 374.570312 984.695312 378.347656 C 989.1875 382.125 993.59375 386 997.917969 389.964844 C 1002.246094 393.933594 1006.484375 397.988281 1010.636719 402.136719 C 1014.789062 406.285156 1018.847656 410.523438 1022.820312 414.84375 C 1026.789062 419.167969 1030.664062 423.574219 1034.445312 428.0625 C 1038.226562 432.550781 1041.914062 437.117188 1045.5 441.761719 C 1049.085938 446.410156 1052.570312 451.128906 1055.953125 455.925781 C 1059.335938 460.71875 1062.617188 465.585938 1065.792969 470.523438 C 1068.96875 475.457031 1072.035156 480.457031 1074.996094 485.527344 C 1077.960938 490.59375 1080.8125 495.722656 1083.550781 500.910156 C 1086.292969 506.101562 1088.921875 511.347656 1091.441406 516.648438 C 1093.957031 521.949219 1096.359375 527.304688 1098.648438 532.707031 C 1103.988281 545.328125 1108.683594 558.1875 1112.730469 571.28125 C 1116.777344 584.375 1120.15625 597.636719 1122.871094 611.070312 C 1125.582031 624.503906 1127.613281 638.039062 1128.964844 651.679688 C 1130.3125 665.316406 1130.976562 678.988281 1130.949219 692.695312 Z M 1130.949219 692.695312 " fill-opacity="1" fill-rule="nonzero"/></g><g clip-path="url(#8e2fcaa6d4)"><path fill="#d9d9d9" d="M 1025.894531 687.03125 L 1020.046875 687.03125 C 1020.046875 514.84375 879.957031 374.753906 707.765625 374.753906 C 535.570312 374.753906 395.488281 514.84375 395.488281 687.03125 L 389.640625 687.03125 C 389.644531 682.488281 389.746094 677.949219 389.941406 673.410156 C 390.140625 668.871094 390.433594 664.339844 390.824219 659.8125 C 391.21875 655.289062 391.707031 650.773438 392.289062 646.265625 C 392.875 641.761719 393.554688 637.273438 394.332031 632.796875 C 395.109375 628.320312 395.984375 623.863281 396.953125 619.425781 C 397.917969 614.988281 398.980469 610.570312 400.140625 606.179688 C 401.296875 601.785156 402.546875 597.417969 403.890625 593.082031 C 405.234375 588.742188 406.671875 584.433594 408.199219 580.15625 C 409.730469 575.878906 411.347656 571.632812 413.058594 567.425781 C 414.769531 563.21875 416.570312 559.046875 418.457031 554.914062 C 420.347656 550.785156 422.324219 546.695312 424.386719 542.648438 C 426.453125 538.601562 428.601562 534.601562 430.839844 530.648438 C 433.074219 526.691406 435.390625 522.789062 437.796875 518.933594 C 440.199219 515.078125 442.683594 511.273438 445.246094 507.527344 C 447.8125 503.777344 450.457031 500.085938 453.179688 496.449219 C 455.90625 492.8125 458.707031 489.238281 461.582031 485.722656 C 464.460938 482.207031 467.410156 478.753906 470.433594 475.363281 C 473.460938 471.976562 476.554688 468.652344 479.722656 465.394531 C 482.890625 462.140625 486.125 458.953125 489.425781 455.832031 C 492.730469 452.714844 496.101562 449.667969 499.535156 446.695312 C 502.96875 443.722656 506.464844 440.824219 510.023438 438 C 513.582031 435.175781 517.195312 432.425781 520.871094 429.757812 C 524.546875 427.089844 528.28125 424.5 532.066406 421.988281 C 535.851562 419.480469 539.691406 417.054688 543.582031 414.707031 C 547.472656 412.363281 551.410156 410.101562 555.398438 407.925781 C 559.386719 405.75 563.417969 403.660156 567.496094 401.65625 C 571.574219 399.652344 575.691406 397.738281 579.847656 395.910156 C 584.007812 394.082031 588.203125 392.34375 592.4375 390.695312 C 596.671875 389.050781 600.9375 387.492188 605.238281 386.027344 C 609.539062 384.5625 613.867188 383.191406 618.226562 381.910156 C 622.585938 380.632812 626.96875 379.445312 631.378906 378.355469 C 635.789062 377.261719 640.21875 376.265625 644.671875 375.363281 C 649.125 374.460938 653.59375 373.65625 658.082031 372.945312 C 662.566406 372.234375 667.066406 371.621094 671.578125 371.101562 C 676.09375 370.585938 680.617188 370.164062 685.144531 369.839844 C 689.675781 369.515625 694.214844 369.289062 698.753906 369.160156 C 703.296875 369.03125 707.835938 368.996094 712.378906 369.0625 C 716.921875 369.125 721.460938 369.289062 725.996094 369.546875 C 730.53125 369.804688 735.058594 370.160156 739.578125 370.613281 C 744.097656 371.066406 748.605469 371.617188 753.101562 372.261719 C 757.601562 372.910156 762.082031 373.652344 766.546875 374.488281 C 771.011719 375.328125 775.453125 376.261719 779.878906 377.289062 C 784.304688 378.316406 788.703125 379.4375 793.082031 380.65625 C 797.457031 381.871094 801.808594 383.183594 806.128906 384.585938 C 810.449219 385.988281 814.738281 387.484375 818.992188 389.070312 C 823.25 390.65625 827.472656 392.332031 831.65625 394.101562 C 835.839844 395.867188 839.984375 397.722656 844.089844 399.667969 C 848.195312 401.613281 852.257812 403.644531 856.277344 405.765625 C 860.292969 407.882812 864.265625 410.085938 868.1875 412.375 C 872.113281 414.664062 875.988281 417.039062 879.808594 419.492188 C 883.632812 421.945312 887.398438 424.480469 891.113281 427.097656 C 894.828125 429.714844 898.480469 432.410156 902.082031 435.183594 C 905.679688 437.953125 909.214844 440.804688 912.691406 443.726562 C 916.167969 446.652344 919.582031 449.648438 922.929688 452.71875 C 926.277344 455.789062 929.558594 458.929688 932.769531 462.140625 C 935.984375 465.351562 939.128906 468.628906 942.199219 471.976562 C 945.273438 475.320312 948.273438 478.730469 951.199219 482.207031 C 954.128906 485.679688 956.980469 489.214844 959.753906 492.808594 C 962.53125 496.40625 965.226562 500.058594 967.847656 503.773438 C 970.464844 507.484375 973.003906 511.25 975.460938 515.070312 C 977.921875 518.890625 980.296875 522.761719 982.585938 526.683594 C 984.878906 530.605469 987.085938 534.574219 989.207031 538.589844 C 991.332031 542.609375 993.367188 546.667969 995.3125 550.773438 C 997.261719 554.875 999.121094 559.019531 1000.894531 563.203125 C 1005.027344 572.972656 1008.660156 582.921875 1011.792969 593.058594 C 1014.925781 603.191406 1017.542969 613.457031 1019.640625 623.855469 C 1021.738281 634.253906 1023.3125 644.730469 1024.355469 655.285156 C 1025.402344 665.84375 1025.914062 676.421875 1025.894531 687.03125 Z M 1025.894531 687.03125 " fill-opacity="1" fill-rule="nonzero"/></g><g fill="#ffffff" fill-opacity="1"><g transform="translate(721.060527, 460.499997)"><g><path d="M 35.703125 -18.09375 C 35.703125 -11.226562 33.769531 -6.445312 29.90625 -3.75 C 26.332031 -1.25 21.429688 0 15.203125 0 L 1.046875 0 L 1.046875 -0.953125 L 4.34375 -0.953125 L 4.34375 -34.046875 L 1.046875 -34.046875 L 1.046875 -35 L 16.5 -35 C 22.894531 -35 27.691406 -33.691406 30.890625 -31.078125 C 34.097656 -28.460938 35.703125 -24.132812 35.703125 -18.09375 Z M 14.09375 -0.953125 L 16 -0.953125 C 19.363281 -0.953125 21.769531 -2.140625 23.21875 -4.515625 C 24.675781 -6.898438 25.40625 -10.894531 25.40625 -16.5 L 25.40625 -19.40625 C 25.40625 -26.90625 23.96875 -31.421875 21.09375 -32.953125 C 19.726562 -33.679688 17.796875 -34.046875 15.296875 -34.046875 L 14.09375 -34.046875 Z M 14.09375 -0.953125 "/></g></g></g><g fill="#ffffff" fill-opacity="1"><g transform="translate(758.804685, 460.499997)"><g><path d="M 25.046875 -15.453125 L 25.046875 -19.15625 C 25.046875 -25.25 24.75 -29.097656 24.15625 -30.703125 C 23.488281 -32.535156 22.535156 -33.664062 21.296875 -34.09375 C 20.597656 -34.363281 19.75 -34.5 18.75 -34.5 C 17.75 -34.5 16.890625 -34.363281 16.171875 -34.09375 C 15.453125 -33.832031 14.859375 -33.367188 14.390625 -32.703125 C 13.929688 -32.035156 13.554688 -31.332031 13.265625 -30.59375 C 12.984375 -29.863281 12.757812 -28.832031 12.59375 -27.5 C 12.394531 -25.5625 12.296875 -22.710938 12.296875 -18.953125 L 12.296875 -15.34375 C 12.296875 -11.28125 12.453125 -8.390625 12.765625 -6.671875 C 13.085938 -4.953125 13.484375 -3.726562 13.953125 -3 C 14.984375 -1.363281 16.582031 -0.546875 18.75 -0.546875 C 21.382812 -0.546875 23.09375 -1.65625 23.875 -3.875 C 24.65625 -6.09375 25.046875 -9.953125 25.046875 -15.453125 Z M 18.640625 0.5 C 13.078125 0.5 8.921875 -1.003906 6.171875 -4.015625 C 3.421875 -7.035156 2.046875 -11.40625 2.046875 -17.125 C 2.046875 -22.84375 3.519531 -27.34375 6.46875 -30.625 C 9.425781 -33.90625 13.601562 -35.546875 19 -35.546875 C 24.394531 -35.546875 28.46875 -33.988281 31.21875 -30.875 C 33.96875 -27.757812 35.34375 -23.332031 35.34375 -17.59375 C 35.34375 -11.863281 33.953125 -7.414062 31.171875 -4.25 C 28.390625 -1.082031 24.210938 0.5 18.640625 0.5 Z M 18.640625 0.5 "/></g></g></g><g fill="#ffffff" fill-opacity="1"><g transform="translate(796.198894, 460.499997)"><g><path d="M 20 -34.546875 C 14.832031 -34.546875 12.25 -29.5625 12.25 -19.59375 L 12.25 -15.65625 C 12.25 -10.914062 12.929688 -7.203125 14.296875 -4.515625 C 15.660156 -1.835938 17.675781 -0.5 20.34375 -0.5 C 24.007812 -0.5 27.378906 -4.066406 30.453125 -11.203125 L 31.34375 -11.203125 L 31 -0.046875 L 30.453125 -0.046875 C 30.253906 -0.410156 30.070312 -0.664062 29.90625 -0.8125 C 29.738281 -0.96875 29.492188 -1.046875 29.171875 -1.046875 C 28.859375 -1.046875 27.648438 -0.785156 25.546875 -0.265625 C 23.453125 0.242188 21.320312 0.5 19.15625 0.5 C 13.71875 0.5 9.503906 -0.960938 6.515625 -3.890625 C 3.535156 -6.828125 2.046875 -11.238281 2.046875 -17.125 C 2.046875 -23.007812 3.601562 -27.550781 6.71875 -30.75 C 9.84375 -33.945312 14.035156 -35.546875 19.296875 -35.546875 C 21.328125 -35.546875 23.316406 -35.285156 25.265625 -34.765625 C 27.222656 -34.253906 28.367188 -34 28.703125 -34 C 29.035156 -34 29.285156 -34.070312 29.453125 -34.21875 C 29.617188 -34.375 29.800781 -34.632812 30 -35 L 30.546875 -35 L 30.953125 -24.15625 L 30.046875 -24.15625 C 28.546875 -27.519531 27.003906 -30.09375 25.421875 -31.875 C 23.835938 -33.65625 22.03125 -34.546875 20 -34.546875 Z M 20 -34.546875 "/></g></g></g><g clip-path="url(#890de22f27)"><path fill="#004aad" d="M 726.832031 372.875 L 842.71875 372.875 L 890.605469 425.460938 L 890.605469 595.753906 C 890.605469 599.898438 887.515625 603.265625 883.757812 603.265625 L 726.832031 603.265625 C 723.074219 603.265625 719.980469 599.898438 719.980469 595.753906 L 719.980469 380.390625 C 719.980469 376.246094 723.074219 372.875 726.832031 372.875 Z M 726.832031 372.875 " fill-opacity="1" fill-rule="evenodd"/></g><g clip-path="url(#e7cbdea429)"><path fill="#5271ff" d="M 890.605469 425.460938 L 849.566406 425.460938 C 845.8125 425.460938 842.71875 422.09375 842.71875 417.949219 L 842.71875 372.875 Z M 890.605469 425.460938 " fill-opacity="1" fill-rule="evenodd"/></g><g fill="#ffffff" fill-opacity="1"><g transform="translate(750.483901, 517.952226)"><g><path d="M 35.703125 -18.09375 C 35.703125 -11.226562 33.769531 -6.445312 29.90625 -3.75 C 26.332031 -1.25 21.429688 0 15.203125 0 L 1.046875 0 L 1.046875 -0.953125 L 4.34375 -0.953125 L 4.34375 -34.046875 L 1.046875 -34.046875 L 1.046875 -35 L 16.5 -35 C 22.894531 -35 27.691406 -33.691406 30.890625 -31.078125 C 34.097656 -28.460938 35.703125 -24.132812 35.703125 -18.09375 Z M 14.09375 -0.953125 L 16 -0.953125 C 19.363281 -0.953125 21.769531 -2.140625 23.21875 -4.515625 C 24.675781 -6.898438 25.40625 -10.894531 25.40625 -16.5 L 25.40625 -19.40625 C 25.40625 -26.90625 23.96875 -31.421875 21.09375 -32.953125 C 19.726562 -33.679688 17.796875 -34.046875 15.296875 -34.046875 L 14.09375 -34.046875 Z M 14.09375 -0.953125 "/></g></g></g><g fill="#ffffff" fill-opacity="1"><g transform="translate(788.228059, 517.952226)"><g><path d="M 25.046875 -15.453125 L 25.046875 -19.15625 C 25.046875 -25.25 24.75 -29.097656 24.15625 -30.703125 C 23.488281 -32.535156 22.535156 -33.664062 21.296875 -34.09375 C 20.597656 -34.363281 19.75 -34.5 18.75 -34.5 C 17.75 -34.5 16.890625 -34.363281 16.171875 -34.09375 C 15.453125 -33.832031 14.859375 -33.367188 14.390625 -32.703125 C 13.929688 -32.035156 13.554688 -31.332031 13.265625 -30.59375 C 12.984375 -29.863281 12.757812 -28.832031 12.59375 -27.5 C 12.394531 -25.5625 12.296875 -22.710938 12.296875 -18.953125 L 12.296875 -15.34375 C 12.296875 -11.28125 12.453125 -8.390625 12.765625 -6.671875 C 13.085938 -4.953125 13.484375 -3.726562 13.953125 -3 C 14.984375 -1.363281 16.582031 -0.546875 18.75 -0.546875 C 21.382812 -0.546875 23.09375 -1.65625 23.875 -3.875 C 24.65625 -6.09375 25.046875 -9.953125 25.046875 -15.453125 Z M 18.640625 0.5 C 13.078125 0.5 8.921875 -1.003906 6.171875 -4.015625 C 3.421875 -7.035156 2.046875 -11.40625 2.046875 -17.125 C 2.046875 -22.84375 3.519531 -27.34375 6.46875 -30.625 C 9.425781 -33.90625 13.601562 -35.546875 19 -35.546875 C 24.394531 -35.546875 28.46875 -33.988281 31.21875 -30.875 C 33.96875 -27.757812 35.34375 -23.332031 35.34375 -17.59375 C 35.34375 -11.863281 33.953125 -7.414062 31.171875 -4.25 C 28.390625 -1.082031 24.210938 0.5 18.640625 0.5 Z M 18.640625 0.5 "/></g></g></g><g fill="#ffffff" fill-opacity="1"><g transform="translate(825.622268, 517.952226)"><g><path d="M 20 -34.546875 C 14.832031 -34.546875 12.25 -29.5625 12.25 -19.59375 L 12.25 -15.65625 C 12.25 -10.914062 12.929688 -7.203125 14.296875 -4.515625 C 15.660156 -1.835938 17.675781 -0.5 20.34375 -0.5 C 24.007812 -0.5 27.378906 -4.066406 30.453125 -11.203125 L 31.34375 -11.203125 L 31 -0.046875 L 30.453125 -0.046875 C 30.253906 -0.410156 30.070312 -0.664062 29.90625 -0.8125 C 29.738281 -0.96875 29.492188 -1.046875 29.171875 -1.046875 C 28.859375 -1.046875 27.648438 -0.785156 25.546875 -0.265625 C 23.453125 0.242188 21.320312 0.5 19.15625 0.5 C 13.71875 0.5 9.503906 -0.960938 6.515625 -3.890625 C 3.535156 -6.828125 2.046875 -11.238281 2.046875 -17.125 C 2.046875 -23.007812 3.601562 -27.550781 6.71875 -30.75 C 9.84375 -33.945312 14.035156 -35.546875 19.296875 -35.546875 C 21.328125 -35.546875 23.316406 -35.285156 25.265625 -34.765625 C 27.222656 -34.253906 28.367188 -34 28.703125 -34 C 29.035156 -34 29.285156 -34.070312 29.453125 -34.21875 C 29.617188 -34.375 29.800781 -34.632812 30 -35 L 30.546875 -35 L 30.953125 -24.15625 L 30.046875 -24.15625 C 28.546875 -27.519531 27.003906 -30.09375 25.421875 -31.875 C 23.835938 -33.65625 22.03125 -34.546875 20 -34.546875 Z M 20 -34.546875 "/></g></g></g><g clip-path="url(#ce0eeaf43d)"><path fill="#d9d9d9" d="M 937.855469 211.726562 L 1053.742188 211.726562 L 1101.632812 264.308594 L 1101.632812 434.601562 C 1101.632812 438.746094 1098.539062 442.117188 1094.78125 442.117188 L 937.855469 442.117188 C 934.101562 442.117188 931.007812 438.746094 931.007812 434.601562 L 931.007812 219.238281 C 931.007812 215.09375 934.101562 211.726562 937.855469 211.726562 Z M 937.855469 211.726562 " fill-opacity="1" fill-rule="evenodd"/></g><g clip-path="url(#e727d5f4a6)"><path fill="#a6a6a6" d="M 1101.632812 264.308594 L 1060.59375 264.308594 C 1056.835938 264.308594 1053.742188 260.941406 1053.742188 256.796875 L 1053.742188 211.726562 Z M 1101.632812 264.308594 " fill-opacity="1" fill-rule="evenodd"/></g><g fill="#000000" fill-opacity="1"><g transform="translate(964.415301, 345.300003)"><g><path d="M 31.796875 -35 L 32.296875 -22.453125 L 31.34375 -22.453125 C 29.882812 -26.878906 28.585938 -29.898438 27.453125 -31.515625 C 26.316406 -33.140625 24.679688 -33.953125 22.546875 -33.953125 L 21.953125 -33.953125 L 21.953125 -1.046875 L 26.203125 -1.046875 L 26.203125 0 L 7.953125 0 L 7.953125 -1.046875 L 12.203125 -1.046875 L 12.203125 -33.953125 L 11.546875 -33.953125 C 9.410156 -33.953125 7.757812 -33.109375 6.59375 -31.421875 C 5.425781 -29.742188 4.144531 -26.753906 2.75 -22.453125 L 1.796875 -22.453125 L 2.296875 -35 Z M 31.796875 -35 "/></g></g></g><g fill="#000000" fill-opacity="1"><g transform="translate(998.560017, 345.300003)"><g><path d="M 35 0 L 17.90625 0 L 17.90625 -0.953125 L 21.203125 -0.953125 L 13.75 -14.15625 L 5.796875 -0.953125 L 11.09375 -0.953125 L 11.09375 0 L 0.75 0 L 0.75 -0.953125 L 4.09375 -0.953125 L 12.84375 -15.65625 L 2.40625 -34 L -0.296875 -34 L -0.296875 -35 L 16.546875 -35 L 16.546875 -34 L 13.15625 -34 L 19.90625 -21.90625 L 27.453125 -34 L 22.25 -34 L 22.25 -35 L 32.5 -35 L 32.5 -34 L 29.203125 -34 L 20.75 -20.5 L 32.09375 -0.953125 L 35 -0.953125 Z M 35 0 "/></g></g></g><g fill="#000000" fill-opacity="1"><g transform="translate(1034.104518, 345.300003)"><g><path d="M 31.796875 -35 L 32.296875 -22.453125 L 31.34375 -22.453125 C 29.882812 -26.878906 28.585938 -29.898438 27.453125 -31.515625 C 26.316406 -33.140625 24.679688 -33.953125 22.546875 -33.953125 L 21.953125 -33.953125 L 21.953125 -1.046875 L 26.203125 -1.046875 L 26.203125 0 L 7.953125 0 L 7.953125 -1.046875 L 12.203125 -1.046875 L 12.203125 -33.953125 L 11.546875 -33.953125 C 9.410156 -33.953125 7.757812 -33.109375 6.59375 -31.421875 C 5.425781 -29.742188 4.144531 -26.753906 2.75 -22.453125 L 1.796875 -22.453125 L 2.296875 -35 Z M 31.796875 -35 "/></g></g></g><g clip-path="url(#3095ea7ac8)"><path fill="#ff3131" d="M 376.925781 297.050781 L 492.8125 297.050781 L 540.703125 349.636719 L 540.703125 519.929688 C 540.703125 524.070312 537.609375 527.441406 533.851562 527.441406 L 376.925781 527.441406 C 373.171875 527.441406 370.078125 524.070312 370.078125 519.929688 L 370.078125 304.5625 C 370.078125 300.417969 373.171875 297.050781 376.925781 297.050781 Z M 376.925781 297.050781 " fill-opacity="1" fill-rule="evenodd"/></g><g clip-path="url(#8d19d382b6)"><path fill="#ff5757" d="M 540.703125 349.636719 L 499.660156 349.636719 C 495.90625 349.636719 492.8125 346.265625 492.8125 342.121094 L 492.8125 297.050781 Z M 540.703125 349.636719 " fill-opacity="1" fill-rule="evenodd"/></g><g fill="#ffffff" fill-opacity="1"><g transform="translate(405.887537, 430.624892)"><g><path d="M 0.75 -35 L 15.453125 -35 C 20.484375 -35 24.234375 -34.273438 26.703125 -32.828125 C 29.171875 -31.378906 30.40625 -28.785156 30.40625 -25.046875 C 30.40625 -20.910156 28.90625 -18.0625 25.90625 -16.5 C 23.101562 -15.0625 19.1875 -14.34375 14.15625 -14.34375 L 13.75 -14.34375 L 13.75 -0.953125 L 20 -0.953125 L 20 0 L 0.75 0 L 0.75 -0.953125 L 4 -0.953125 L 4 -34.046875 L 0.75 -34.046875 Z M 13.75 -34.046875 L 13.75 -15.296875 L 14.796875 -15.296875 C 16.796875 -15.296875 18.175781 -15.976562 18.9375 -17.34375 C 19.707031 -18.71875 20.09375 -20.9375 20.09375 -24 L 20.09375 -26.40625 C 20.09375 -29.238281 19.734375 -31.21875 19.015625 -32.34375 C 18.304688 -33.476562 17 -34.046875 15.09375 -34.046875 Z M 13.75 -34.046875 "/></g></g></g><g fill="#ffffff" fill-opacity="1"><g transform="translate(437.582634, 430.624892)"><g><path d="M 35.703125 -18.09375 C 35.703125 -11.226562 33.769531 -6.445312 29.90625 -3.75 C 26.332031 -1.25 21.429688 0 15.203125 0 L 1.046875 0 L 1.046875 -0.953125 L 4.34375 -0.953125 L 4.34375 -34.046875 L 1.046875 -34.046875 L 1.046875 -35 L 16.5 -35 C 22.894531 -35 27.691406 -33.691406 30.890625 -31.078125 C 34.097656 -28.460938 35.703125 -24.132812 35.703125 -18.09375 Z M 14.09375 -0.953125 L 16 -0.953125 C 19.363281 -0.953125 21.769531 -2.140625 23.21875 -4.515625 C 24.675781 -6.898438 25.40625 -10.894531 25.40625 -16.5 L 25.40625 -19.40625 C 25.40625 -26.90625 23.96875 -31.421875 21.09375 -32.953125 C 19.726562 -33.679688 17.796875 -34.046875 15.296875 -34.046875 L 14.09375 -34.046875 Z M 14.09375 -0.953125 "/></g></g></g><g fill="#ffffff" fill-opacity="1"><g transform="translate(475.326792, 430.624892)"><g><path d="M 1.046875 -35 L 27.046875 -35 L 27.546875 -24.59375 L 26.65625 -24.59375 C 25.414062 -28.195312 23.988281 -30.648438 22.375 -31.953125 C 20.757812 -33.253906 18.351562 -33.90625 15.15625 -33.90625 L 13.75 -33.90625 L 13.75 -17.65625 L 16 -17.65625 C 17.601562 -17.65625 18.9375 -18.238281 20 -19.40625 C 21.0625 -20.570312 21.796875 -22.171875 22.203125 -24.203125 L 22.953125 -24.203125 L 22.953125 -9.40625 L 22.09375 -9.40625 C 21.5625 -11.90625 20.820312 -13.6875 19.875 -14.75 C 18.925781 -15.8125 17.632812 -16.34375 16 -16.34375 L 13.75 -16.34375 L 13.75 -1.09375 L 19.953125 -1.09375 L 19.953125 0 L 1.046875 0 L 1.046875 -1.09375 L 4 -1.09375 L 4 -33.90625 L 1.046875 -33.90625 Z M 1.046875 -35 "/></g></g></g><g clip-path="url(#96569a2740)"><path fill="#ff914d" d="M 612.09375 114.898438 L 727.976562 114.898438 L 775.867188 167.484375 L 775.867188 337.777344 C 775.867188 341.921875 772.773438 345.289062 769.019531 345.289062 L 612.09375 345.289062 C 608.335938 345.289062 605.242188 341.921875 605.242188 337.777344 L 605.242188 122.410156 C 605.242188 118.269531 608.335938 114.898438 612.09375 114.898438 Z M 612.09375 114.898438 " fill-opacity="1" fill-rule="evenodd"/></g><g clip-path="url(#b58f85b050)"><path fill="#ffbd59" d="M 775.867188 167.484375 L 734.828125 167.484375 C 731.070312 167.484375 727.976562 164.113281 727.976562 159.972656 L 727.976562 114.898438 Z M 775.867188 167.484375 " fill-opacity="1" fill-rule="evenodd"/></g><g fill="#ffffff" fill-opacity="1"><g transform="translate(625.572689, 248.474465)"><g><path d="M 1.046875 -35 L 27.046875 -35 L 27.546875 -25.09375 L 26.65625 -25.09375 C 25.25 -28.46875 23.78125 -30.78125 22.25 -32.03125 C 20.71875 -33.28125 18.46875 -33.90625 15.5 -33.90625 L 13.75 -33.90625 L 13.75 -18.453125 L 15.453125 -18.453125 C 17.015625 -18.453125 18.328125 -19.039062 19.390625 -20.21875 C 20.460938 -21.40625 21.21875 -23 21.65625 -25 L 22.40625 -25 L 22.40625 -10.203125 L 21.546875 -10.203125 C 20.953125 -12.703125 20.144531 -14.484375 19.125 -15.546875 C 18.101562 -16.617188 16.710938 -17.15625 14.953125 -17.15625 L 13.75 -17.15625 L 13.75 -1.09375 L 15.65625 -1.09375 C 18.71875 -1.09375 21.320312 -2.007812 23.46875 -3.84375 C 25.625 -5.675781 27.101562 -8.03125 27.90625 -10.90625 L 28.90625 -10.90625 L 28.5 0 L 1.046875 0 L 1.046875 -1.09375 L 4 -1.09375 L 4 -33.90625 L 1.046875 -33.90625 Z M 1.046875 -35 "/></g></g></g><g fill="#ffffff" fill-opacity="1"><g transform="translate(656.767862, 248.474465)"><g><path d="M 0.75 -35 L 15.453125 -35 C 20.484375 -35 24.234375 -34.273438 26.703125 -32.828125 C 29.171875 -31.378906 30.40625 -28.785156 30.40625 -25.046875 C 30.40625 -20.910156 28.90625 -18.0625 25.90625 -16.5 C 23.101562 -15.0625 19.1875 -14.34375 14.15625 -14.34375 L 13.75 -14.34375 L 13.75 -0.953125 L 20 -0.953125 L 20 0 L 0.75 0 L 0.75 -0.953125 L 4 -0.953125 L 4 -34.046875 L 0.75 -34.046875 Z M 13.75 -34.046875 L 13.75 -15.296875 L 14.796875 -15.296875 C 16.796875 -15.296875 18.175781 -15.976562 18.9375 -17.34375 C 19.707031 -18.71875 20.09375 -20.9375 20.09375 -24 L 20.09375 -26.40625 C 20.09375 -29.238281 19.734375 -31.21875 19.015625 -32.34375 C 18.304688 -33.476562 17 -34.046875 15.09375 -34.046875 Z M 13.75 -34.046875 "/></g></g></g><g fill="#ffffff" fill-opacity="1"><g transform="translate(688.46296, 248.474465)"><g><path d="M 13.546875 -10.65625 C 13.546875 -7.582031 14.070312 -5.226562 15.125 -3.59375 C 16.175781 -1.96875 18.066406 -1.15625 20.796875 -1.15625 C 23.535156 -1.15625 25.632812 -2.003906 27.09375 -3.703125 C 28.5625 -5.398438 29.296875 -7.984375 29.296875 -11.453125 L 29.296875 -34.046875 L 26.046875 -34.046875 L 26.046875 -35 L 33.34375 -35 L 33.34375 -34.046875 L 30.59375 -34.046875 L 30.59375 -11.796875 C 30.59375 -7.660156 29.675781 -4.578125 27.84375 -2.546875 C 26.007812 -0.515625 22.769531 0.5 18.125 0.5 C 13.476562 0.5 9.925781 -0.460938 7.46875 -2.390625 C 5.019531 -4.328125 3.796875 -7.644531 3.796875 -12.34375 L 3.796875 -34.046875 L 1.046875 -34.046875 L 1.046875 -35 L 16.796875 -35 L 16.796875 -34.046875 L 13.546875 -34.046875 Z M 13.546875 -10.65625 "/></g></g></g><g fill="#ffffff" fill-opacity="1"><g transform="translate(722.607676, 248.474465)"><g><path d="M 1.046875 -35 L 16 -35 C 20.632812 -35 24.109375 -34.375 26.421875 -33.125 C 28.742188 -31.875 29.90625 -29.765625 29.90625 -26.796875 C 29.90625 -22.234375 27.15625 -19.5 21.65625 -18.59375 L 21.65625 -18.5 C 28.320312 -17.664062 31.65625 -14.765625 31.65625 -9.796875 C 31.65625 -6.160156 30.285156 -3.617188 27.546875 -2.171875 C 24.816406 -0.722656 20.882812 0 15.75 0 L 1.046875 0 L 1.046875 -0.953125 L 4.296875 -0.953125 L 4.296875 -34.046875 L 1.046875 -34.046875 Z M 14.046875 -17.703125 L 14.046875 -0.953125 L 16.40625 -0.953125 C 18.238281 -0.953125 19.519531 -1.582031 20.25 -2.84375 C 20.976562 -4.113281 21.34375 -5.984375 21.34375 -8.453125 L 21.34375 -11.09375 C 21.34375 -13.300781 20.894531 -14.953125 20 -16.046875 C 19.101562 -17.148438 17.503906 -17.703125 15.203125 -17.703125 Z M 14.046875 -34.046875 L 14.046875 -18.65625 L 15.34375 -18.65625 C 17.082031 -18.65625 18.289062 -19.175781 18.96875 -20.21875 C 19.65625 -21.269531 20 -22.878906 20 -25.046875 L 20 -27.40625 C 20 -29.863281 19.695312 -31.582031 19.09375 -32.5625 C 18.5 -33.550781 17.351562 -34.046875 15.65625 -34.046875 Z M 14.046875 -34.046875 "/></g></g></g></svg>