<?xml version="1.0" encoding="utf-8"?>
<!-- Generator: Adobe Illustrator 26.0.3, SVG Export Plug-In . SVG Version: 6.00 Build 0)  -->
<svg version="1.0" id="katman_1" xmlns="http://www.w3.org/2000/svg" xmlns:xlink="http://www.w3.org/1999/xlink" x="0px" y="0px"
     viewBox="0 0 800 600" style="enable-background:new 0 0 800 600;" xml:space="preserve">
<style type="text/css">
    .st0 { fill: #9ca3af; }
</style>
<g>
    <path class="st0" d="M320.1,289.7v40.1h-14.6v-40.1h-14.8v-12.8h44.2v12.8H320.1z"/>
    <path class="st0" d="M369.1,313.8h-23.3c0.5,4.4,3,6.3,6.7,6.3c3.5,0,6.4-0.8,10.3-2.8l5.2,8.7c-4.9,2.9-10,4.5-16.2,4.5
        c-11.9,0-18.5-8.5-18.5-20.6c0-13.7,7.7-20.7,18.1-20.7c10.9,0,17.7,7.2,17.7,21.9C369.2,312.3,369.2,313.2,369.1,313.8z
         M351.1,299.4c-3.1,0-4.8,2.1-5.3,6h11.3C356.5,301.4,355.1,299.4,351.1,299.4z"/>
    <path class="st0" d="M394.4,330.6c-11.6,0-18.6-7.4-18.6-20.8c0-12.2,6.2-20.5,18.9-20.5c7.5,0,11.8,3.5,15.2,9l-9.4,7.1
        c-1.9-3.5-3.2-5.1-6.1-5.1c-3.5,0-5.2,3.5-5.2,9.8c0,6.3,1.9,9.5,5.6,9.5c2.6,0,4.4-1.4,6.9-5.1l8.6,6.7
        C405.7,327.9,401.4,330.6,394.4,330.6z"/>
    <path class="st0" d="M440.7,329.8v-22.5c0-5.1-1.7-6.5-4.5-6.5c-2.9,0-4.6,1.3-4.6,6.4v22.6H418v-49.6l13.6-5.4v18.1
        c2.5-1.9,5.3-3.5,10-3.5c8.7,0,12.8,5.8,12.8,16.2v24.2H440.7z"/>
    <path class="st0" d="M486.9,330.6c-15.7,0-24.1-11.6-24.1-27.2c0-17,10-27.2,24.1-27.2c13,0,18.1,5.6,21.8,15.6l-13.3,5.1
        c-1.9-4.9-3.7-8-8.5-8c-6.1,0-8.7,6.1-8.7,14.5c0,8.1,2.6,14.5,8.9,14.5c4.6,0,6.6-2.5,9.4-7.5l12.4,6.6
        C505.4,323.9,499.5,330.6,486.9,330.6z"/>
    <path class="st0" d="M542.3,305.1c-1.7-1.9-3.7-3.3-6.3-3.3c-3.3,0-5.4,1.6-5.4,6.4v21.6H517v-39.6h13.6v2.9c2.3-2.3,5-3.7,8.5-3.7
        c2.9,0,4.8,0.7,6.4,1.7L542.3,305.1z"/>
    <path class="st0" d="M574.6,329.8v-2.6c-2.4,1.9-5.3,3.5-9.9,3.5c-8.7,0-12.8-5.8-12.8-16.2v-24.2h13.7v22.5c0,5.1,1.7,6.5,4.5,6.5
        s4.5-1.3,4.5-6.4v-22.6h13.7v39.6H574.6z"/>
    <path class="st0" d="M620.8,329.8v-22.5c0-5.1-1.7-6.5-4.5-6.5c-2.9,0-4.6,1.3-4.6,6.4v22.6h-13.6v-39.6h13.6v2.6
        c2.5-1.9,5.3-3.5,10-3.5c8.7,0,12.8,5.8,12.8,16.2v24.2H620.8z"/>
    <path class="st0" d="M661,330.6c-11.6,0-18.6-7.4-18.6-20.8c0-12.2,6.2-20.5,18.9-20.5c7.5,0,11.8,3.5,15.2,9l-9.4,7.1
        c-1.9-3.5-3.2-5.1-6.1-5.1c-3.5,0-5.2,3.5-5.2,9.8c0,6.3,1.9,9.5,5.6,9.5c2.6,0,4.4-1.4,6.9-5.1l8.6,6.7
        C672.3,327.9,668,330.6,661,330.6z"/>
    <path class="st0" d="M707.3,329.8v-22.5c0-5.1-1.7-6.5-4.5-6.5c-2.9,0-4.6,1.3-4.6,6.4v22.6h-13.6v-49.6l13.6-5.4v18.1
        c2.5-1.9,5.3-3.5,10-3.5c8.7,0,12.8,5.8,12.8,16.2v24.2H707.3z"/>
</g>
<g>
    <polygon class="st0" points="78.7,254.3 78.7,284.5 108.9,284.5 108.9,344.9 139,344.9 139,284.5 169.3,284.5 169.3,254.3 	"/>
    <polygon class="st0" points="199.4,314.7 199.4,284.5 169.3,284.5 169.3,344.9 259.8,344.9 259.8,314.7 	"/>
    <rect x="199.4" y="254.3" class="st0" width="60.4" height="30.2"/>
</g>
</svg>
