<?xml version="1.0" encoding="utf-8"?>
<!-- Generator: Adobe Illustrator 26.5.0, SVG Export Plug-In . SVG Version: 6.00 Build 0)  -->
<svg version="1.0" id="katman_1" xmlns="http://www.w3.org/2000/svg" xmlns:xlink="http://www.w3.org/1999/xlink" x="0px" y="0px"
	 viewBox="0 0 1190.55 841.89" style="enable-background:new 0 0 1190.55 841.89;" xml:space="preserve">
<style type="text/css">
	.st0{ fill: #9ca3af;}
</style>
<path class="st0" d="M828.08,369.46l-0.91,27.39c-31.98-2.19-41.12,6.03-41.12,32.87v3.46h-27.41V371.1h27.41v17.71
	C794.27,374.39,805.42,367.82,828.08,369.46z M175.63,480.85h27.41V374.94h-27.41V480.85L175.63,480.85z M311.42,369.65
	c-19.19,0-30.89,8.58-37.1,18.08v-58.43H129.94v25.56h118.79v78.33h26.13c0-22.46,12.98-38.34,28.88-38.34
	c13.71,0,19.92,6.76,19.92,31.04v54.97h27.41v-64.83C351.08,384.99,335.18,369.65,311.42,369.65z M419.25,459.85
	c-16.63,0-27.41-10.04-29.24-26.66h-25.77c2.56,29.22,21.75,49.85,54.83,49.85c25.59,0,40.02-11.5,47.52-28.85l-23.21-10.23
	C439.9,454.37,433.5,459.85,419.25,459.85z M418.15,370.19c-9.79-0.22-19.47,2.05-28.14,6.57l13.16,18.63
	c4.93-2.55,10.24-3.83,15.9-3.65c15.35,0,23.21,10.05,24.31,23.19h-26.5v18.26h52.27c0.37-2.74,0.55-5.3,0.55-8.03
	C469.87,385.35,443.55,370.19,418.15,370.19z M689.55,459.85c-16.63,0-27.41-10.04-29.24-26.66h-25.77
	c2.56,29.22,21.75,49.85,54.83,49.85c25.59,0,40.02-11.5,47.52-28.85l-23.21-10.23C710.02,454.37,703.62,459.85,689.55,459.85z
	 M688.63,370.19c-9.79-0.22-19.47,2.04-28.15,6.57l13.16,18.63c4.93-2.55,10.23-3.83,15.9-3.65c15.35,0,23.21,10.05,24.31,23.19
	h-26.5v18.26h52.27c0.37-2.74,0.55-5.3,0.55-8.03C740.35,385.35,714.04,370.19,688.63,370.19z M1009.92,459.85
	c-16.63,0-27.41-10.04-29.24-26.66h-25.77c2.56,29.22,21.75,49.85,54.83,49.85c25.59,0,40.02-11.5,47.52-28.85l-23.21-10.23
	C1030.39,454.37,1024,459.85,1009.92,459.85L1009.92,459.85z M1008.46,370.19c-9.79-0.22-19.47,2.05-28.14,6.57l13.16,18.63
	c4.94-2.55,10.24-3.83,15.9-3.65c15.35,0,23.21,10.05,24.31,23.19h-26.5v18.26h52.27c0.37-2.74,0.55-5.3,0.55-8.03
	C1060.18,385.35,1033.86,370.19,1008.46,370.19z M483.76,316.32l49.31,116.86h29.97l-37.61-92.94h48.61v-23.74L483.76,316.32
	L483.76,316.32z M629.97,316.5l-56.47,142.98l-8.41,21.37h28.69l67.8-164.35L629.97,316.5L629.97,316.5z M881.99,478.3
	c11.7,0,21.38-3.29,28.14-8.95L899.17,452c-3.47,1.46-7.31,2.01-11.15,2.01c-14.99,0-23.58-8.95-26.5-20.82h-26.87
	C838.31,458.58,856.59,478.3,881.99,478.3z M915.8,386.44c-6.21-9.86-18.82-16.98-36.37-16.98c-17.18-0.18-33.08,9.13-41.48,24.29
	l22.84,14.61c4.2-8.77,12.43-14.61,25.04-14.61c17.91,0,29.97,13.88,29.97,30.31c0,3.11-0.37,6.21-1.28,9.13h28.69v-61.9H915.8
	L915.8,386.44L915.8,386.44z M889.3,503.13c-17.73,0-24.31-8.58-25.59-18.63h-26.13c0.55,19.17,13.34,40.17,52.27,40.17
	c26.32,0,43.5-13.15,50.62-32.87l-24.67-8.58C912.33,496.01,902.83,503.13,889.3,503.13L889.3,503.13z"/>
</svg>
