<?xml version="1.0" encoding="utf-8"?>
<!-- Generator: Adobe Illustrator 26.0.3, SVG Export Plug-In . SVG Version: 6.00 Build 0)  -->
<svg fill="#9ca3af" version="1.0" id="katman_1" xmlns="http://www.w3.org/2000/svg" xmlns:xlink="http://www.w3.org/1999/xlink" x="0px" y="0px"
	 viewBox="0 0 600 450" style="enable-background:new 0 0 600 450;" xml:space="preserve">
<g>
	<g>
		<path d="M392.8,196c5.8,0.2,12.8,0.4,17.1,4.8c2.5,3,3.9,6.7,3.8,10.6c0.1,3.4-1.2,6.8-3.6,9.2
			c-1.7,1.5-3.7,2.7-5.8,3.6c2.6,0.6,5,1.8,7,3.6c2.6,3,4.1,6.8,4,10.8c0.1,3.8-1.3,7.4-4,10.1c-4.6,4.7-10.6,4.7-17.2,4.9h-26.4
			v-11.8l5.1,0.1v-34.3l-5.1,0.1V196H392.8z M387.7,219.1c4.7,0.1,5.3,0.1,6.4-0.2c2.7-0.6,4.5-3,4.4-5.7c0.1-2.2-1-4.2-2.8-5.3
			c-1.3-0.7-2.1-0.7-7.9-0.7L387.7,219.1z M387.7,241.8h4.6c3.2,0,7.7-0.1,7.7-5.5c0.1-2.4-1.3-4.6-3.5-5.5c-1.4-0.6-2-0.6-8.6-0.6
			L387.7,241.8z"/>
		<path d="M458.4,239c-0.6,3-1.3,7-5.1,10.6s-9.2,4.9-14.4,4.9c-11.3,0-21.1-5.5-21.1-21.9c-0.1-2.9,0.3-5.7,1.1-8.5
			c2.9-9.7,10.8-13.7,19.5-13.7c6.5,0,11.8,2.3,14.9,5.4c6.2,6,5.9,15.8,5.8,19.6h-25.8c0,3.3,0.1,9,5.4,9c4.4,0,5-3.7,5.2-5.3
			L458.4,239z M443.9,227.3c0.1-1.1-0.1-2.3-0.4-3.3c-0.7-2-2.6-3.2-4.7-3.1c-4.9,0-5.1,4.7-5.1,6.4L443.9,227.3z"/>
		<path d="M502.2,241.8v11.8h-17.6l-0.3-4.9c-2.6,3.9-7,6.1-11.7,5.9c-7.6,0-12.3-4.5-12.3-12.7
			c-0.2-4.5,2-8.8,5.7-11.2c5.4-3.7,13.7-3.4,17.9-3.3c0.1-1.5,0.1-3-0.2-4.5c-0.2-1.8-1.8-3.2-3.7-3.1c-1,0-2,0.4-2.8,1.1
			c-1,1.1-1.4,2.6-1.3,4.1h-14.2c0-2.4,0.5-4.7,1.5-6.9c3-6.1,10.7-7.9,16.6-7.9c5.5,0,11.9,1.6,15.4,5.2c3.2,3.2,3.5,6.9,3.5,10
			v16.4H502.2z M483.9,234.8c-1.5-0.2-3.1-0.1-4.6,0.3c-2.3,0.6-3.9,2.8-3.8,5.2c0,2.9,1.5,4.4,3.7,4.4c1.5,0,2.9-0.8,3.7-2
			c0.7-1.2,1-2.5,1-3.8L483.9,234.8z"/>
		<path d="M522.7,198.1v13.2h6.8V223h-6.8v15.2c0.1,1.5,0.2,4.7,4.2,4.7c0.8,0,1.5-0.1,2.2-0.4v10.8
			c-2.9,0.6-5.9,1-8.9,1.1c-4.7,0-8.3-1.3-10.1-3.1c-2.3-2.3-2.4-5.3-2.4-7.7V223H504v-11.7h4.8v-10.1L522.7,198.1z"/>
	</g>
	<g>
		<polygon points="70.7,196 95.5,196 95.5,207.7 90.4,207.6 98.8,240.6 107.9,207.6 102.8,207.7 102.8,196 125.5,196 125.5,207.7 
			121.7,207.6 107.4,253.6 88.8,253.6 74.3,207.6 70.7,207.7 		"/>
		<path d="M160.9,239c-0.6,3-1.3,7-5.1,10.6s-9.2,4.9-14.4,4.9c-11.3,0-21.1-5.5-21.1-21.9c-0.1-2.9,0.3-5.7,1.1-8.5
			c2.9-9.7,10.8-13.7,19.5-13.7c6.5,0,11.8,2.3,14.9,5.4c6.2,6,5.9,15.8,5.8,19.6h-25.8c0,3.3,0.1,9,5.4,9c4.4,0,5-3.7,5.2-5.3
			L160.9,239z M146.4,227.3c0.1-1.1-0.1-2.3-0.4-3.3c-0.7-2-2.7-3.2-4.7-3.1c-4.9,0-5.1,4.7-5.1,6.4L146.4,227.3z"/>
		<path d="M206.6,241.8h3.5v11.8h-18.7v-24.8c0.1-1-0.1-2.1-0.3-3.1c-0.6-1.4-2-2.3-3.5-2.2c-1.2,0-2.3,0.5-3.1,1.3
			c-1.5,1.5-1.6,3.3-1.6,5.7v11.5h2.9v11.6h-21.4v-11.8h3.4V223h-3.4v-11.7h16.7l0.5,6.4c0.6-1.3,1.5-2.4,2.5-3.4
			c2.9-2.8,6.7-4.3,10.7-4.2c4.4,0,7.4,1.6,8.9,3.3c2.8,2.8,2.9,6.2,2.9,9.2V241.8z"/>
		<path d="M230.3,198.1v13.2h6.8V223h-6.8v15.2c0.1,1.5,0.2,4.7,4.2,4.7c0.8,0,1.5-0.1,2.2-0.4v10.8c-2.9,0.6-5.9,1-8.9,1.1
			c-4.7,0-8.3-1.3-10.1-3.1c-2.3-2.3-2.4-5.3-2.4-7.7V223h-3.7v-11.7h4.8v-10.1L230.3,198.1z"/>
		<path d="M258.1,211.3V236c0,1.7,0.2,5.6,4,5.6s4-4.2,4-6.4V223l-3.1,0.1v-11.8h18.3v30.6l3.5-0.1v11.8h-17.4v-4.7
			c-1.4,2.1-3.4,3.7-5.7,4.6c-2.1,0.8-4.2,1.2-6.4,1.2c-3.3,0.2-6.5-1-9-3.3c-3.2-3.1-3.3-7.2-3.4-11.1V223l-3.4,0.1v-11.8H258.1z"
			/>
		<path d="M305.1,218.6c0.7-2.3,2.2-7.8,10.3-7.8c1.4,0,2.7,0.1,4,0.5v13.5c-1.2-0.3-2.4-0.4-3.6-0.4c-2.6-0.1-5.2,0.8-7.2,2.5
			c-2,2-2,4.2-2,8l-0.2,6.9h5v11.8h-23.2v-11.8h3.5V223h-3.5v-11.7h16.4L305.1,218.6z"/>
		<path d="M363.1,239c-0.6,3-1.3,7-5.1,10.6s-9.2,4.9-14.4,4.9c-11.3,0-21.1-5.5-21.1-21.9c-0.1-2.9,0.3-5.7,1.1-8.5
			c2.9-9.7,10.8-13.7,19.4-13.7c6.5,0,11.8,2.3,14.9,5.4c6.2,6,5.9,15.8,5.8,19.6H338c0,3.3,0.1,9,5.4,9c4.4,0,5-3.7,5.2-5.3
			L363.1,239z M348.6,227.3c0.1-1.1-0.1-2.3-0.4-3.3c-0.7-2-2.6-3.2-4.7-3.1c-4.9,0-5.1,4.7-5.1,6.4L348.6,227.3z"/>
	</g>
</g>
</svg>
